<svg id="Calque_1" data-name="Calque 1" xmlns="http://www.w3.org/2000/svg" viewBox="0 0 111.75 25.88"><defs><style>.cls-1{fill:#595959;}.cls-2{fill:#f56358;}</style></defs><title>Plan de travail 1</title><path class="cls-1" d="M2.86,25V10.58H.23V7.27H2.86Q2.86.79,10.38.79V4.57a7.25,7.25,0,0,0-1.46.12A1.89,1.89,0,0,0,8,5.14,1.88,1.88,0,0,0,7.59,6a5.8,5.8,0,0,0-.12,1.28h3v3.31h-3V25Z"/><path class="cls-1" d="M11.64,25V.79h4.68V25Z"/><path class="cls-1" d="M29.39,25a7.56,7.56,0,0,1-.29-1.58,5.78,5.78,0,0,1-2.19,1.49,8.42,8.42,0,0,1-3.17.56,6.32,6.32,0,0,1-4.48-1.35,4.62,4.62,0,0,1-1.43-3.51,6.37,6.37,0,0,1,.62-3,4.55,4.55,0,0,1,1.69-1.79,8,8,0,0,1,2.57-.95c1-.2,2.08-.39,3.26-.56a6.47,6.47,0,0,0,2.38-.66A1.54,1.54,0,0,0,29,12.24a1.5,1.5,0,0,0-.81-1.35A4.17,4.17,0,0,0,26,10.4a3.14,3.14,0,0,0-2.32.72A3.37,3.37,0,0,0,22.77,13H18.41a7.83,7.83,0,0,1,.45-2.52,4.76,4.76,0,0,1,1.33-2,6.23,6.23,0,0,1,2.4-1.28,12.44,12.44,0,0,1,3.6-.45,11.72,11.72,0,0,1,3.54.47,5.69,5.69,0,0,1,2.34,1.35,5.21,5.21,0,0,1,1.28,2.19,10.46,10.46,0,0,1,.4,3V25Zm-.32-8.68a2.49,2.49,0,0,1-1.05.58c-.46.14-1.11.3-2,.47a6.61,6.61,0,0,0-2.77,1,2.13,2.13,0,0,0-.76,1.76c0,1.32.76,2,2.27,2a4.44,4.44,0,0,0,1.68-.31,4,4,0,0,0,2.23-2.05A3.32,3.32,0,0,0,29,18.25Z"/><path class="cls-1" d="M47.14,25V14.25a4.08,4.08,0,0,0-.69-2.77,3.12,3.12,0,0,0-2.34-.72q-3.63,0-3.63,4.07V25H35.8V7.27h4.46V9.86a5.66,5.66,0,0,1,2.2-2.29,8,8,0,0,1,5.86-.39,5,5,0,0,1,1.86,1.13,5.52,5.52,0,0,1,1.22,1.86,6.6,6.6,0,0,1,.45,2.53V25Z"/><path class="cls-1" d="M65.24,25V14.25a4.09,4.09,0,0,0-.68-2.77,3.15,3.15,0,0,0-2.34-.72c-2.42,0-3.64,1.36-3.64,4.07V25H53.9V7.27h4.47V9.86a5.7,5.7,0,0,1,2.19-2.29,7.21,7.21,0,0,1,3.53-.77,7.09,7.09,0,0,1,2.34.38,5,5,0,0,1,1.86,1.13,5.52,5.52,0,0,1,1.22,1.86A6.6,6.6,0,0,1,70,12.7V25Z"/><path class="cls-1" d="M76.3,17.35a5,5,0,0,0,1.17,3.2,3.55,3.55,0,0,0,2.79,1.19,3.91,3.91,0,0,0,2-.52,2.34,2.34,0,0,0,1.13-1.46h4.83A7.74,7.74,0,0,1,85.37,24a8.13,8.13,0,0,1-4.9,1.48q-8.85,0-8.85-9.65a11.37,11.37,0,0,1,.57-3.71,8,8,0,0,1,1.68-2.84,7.21,7.21,0,0,1,2.68-1.82,9.76,9.76,0,0,1,3.63-.63,7.48,7.48,0,0,1,6.21,2.63q2.11,2.63,2.11,7.92Zm7.38-3a4.9,4.9,0,0,0-.35-1.71,3.47,3.47,0,0,0-.81-1.23,3.29,3.29,0,0,0-1.15-.72A4,4,0,0,0,80,10.51a3.32,3.32,0,0,0-2.43,1,4.44,4.44,0,0,0-1.17,2.87Z"/><path class="cls-1" d="M90.12,25V.79H94.8V25Z"/><path class="cls-2" d="M105.67,25l-3.89-8-2.26,2.34V25H94.8V.79h4.72V14l5.83-6.73h5.72l-5.94,6.51,5.8,11.2Z"/></svg>